# xmcd CD database file
#
# Track frame offsets:
#	150
#	22717
#	42942
#	59495
#	84057
#	103705
#	129765
#	151465
#	179497
#	192917
#	225985
#
# Disc length: 4110 seconds
#
# Revision: 0
# Processed by: cddbd v1.5.1PL2 Copyright (c) Steve Scherf et al.
# Submitted via: CDex 1.70beta2
#
DISCID=79100c0b
DTITLE=Deborah Henson-Conant - Artist's Proof - Phase 2
DYEAR=2003
DGENRE=Blues
TTITLE0=Dance the Way You Dance
TTITLE1=Cosita Latina
TTITLE2=Birth A'Bertha
TTITLE3=Never too Late
TTITLE4=Dance to the Moon
TTITLE5=Land of You
TTITLE6=Way You Are Blues
TTITLE7=Merceditas
TTITLE8=Up at the Barn
TTITLE9=Caught in the Spell
TTITLE10=Video's Track
EXTD=YEAR: 2003
EXTT0=
EXTT1=
EXTT2=
EXTT3=
EXTT4=
EXTT5=
EXTT6=
EXTT7=
EXTT8=
EXTT9=
EXTT10=
PLAYORDER=
